<svg width="18" height="18" viewBox="0 0 18 18" fill="none" xmlns="http://www.w3.org/2000/svg">
<path d="M2.10352 11.6079C2.10352 11.6079 2.21002 12.9114 2.23477 13.3224C2.26777 13.8737 2.48077 14.4894 2.83627 14.9169C3.33802 15.5229 3.92902 15.7367 4.71802 15.7382C5.64577 15.7397 12.392 15.7397 13.3198 15.7382C14.1088 15.7367 14.6998 15.5229 15.2015 14.9169C15.557 14.4894 15.77 13.8737 15.8038 13.3224C15.8278 12.9114 15.9343 11.6079 15.9343 11.6079" stroke="#5D7988" stroke-width="1.5" stroke-linecap="round" stroke-linejoin="round"/>
<path d="M6.37207 3.99724V3.71899C6.37207 2.80399 7.11307 2.06299 8.02809 2.06299H9.96459C10.8788 2.06299 11.6206 2.80399 11.6206 3.71899L11.6213 3.99724" stroke="#5D7988" stroke-width="1.5" stroke-linecap="round" stroke-linejoin="round"/>
<path d="M8.99609 12.5086V11.5381" stroke="#5D7988" stroke-width="1.125" stroke-linecap="round" stroke-linejoin="round"/>
<path fill-rule="evenodd" clip-rule="evenodd" d="M2.0625 6.29179V8.89208C3.501 9.84083 5.2245 10.5053 7.116 10.7686C7.3425 9.94283 8.08726 9.33758 8.99251 9.33758C9.88351 9.33758 10.6433 9.94283 10.8548 10.7761C12.7538 10.5128 14.484 9.84833 15.93 8.89208V6.29179C15.93 5.02129 14.9078 3.99829 13.6373 3.99829H4.36275C3.09225 3.99829 2.0625 5.02129 2.0625 6.29179Z" stroke="#5D7988" stroke-width="1.5" stroke-linecap="round" stroke-linejoin="round"/>
</svg>
