<svg width="18" height="18" viewBox="0 0 18 18" fill="none" xmlns="http://www.w3.org/2000/svg">
<path d="M9 10.5C8.925 10.5 8.85 10.5 8.775 10.425L0.525 7.42505C0.225 7.35005 0 7.05005 0 6.75005C0 6.45005 0.225 6.15005 0.525 6.07505L8.775 3.07505C8.925 3.00005 9.15 3.00005 9.3 3.07505L17.55 6.07505C17.775 6.15005 18 6.45005 18 6.75005C18 7.05005 17.775 7.35005 17.475 7.42505L9.225 10.425C9.15 10.5 9.075 10.5 9 10.5ZM2.925 6.75005L9 8.92505L15.075 6.75005L9 4.57505L2.925 6.75005Z" fill="#BCBCBC"/>
<path d="M14.25 15.0001H9C8.55 15.0001 8.25 14.7001 8.25 14.2501C8.25 13.8001 8.55 13.5001 9 13.5001H13.5C13.425 11.5501 12.975 9.90008 12.225 8.70008C12 8.32508 12.15 7.87508 12.45 7.65008C12.825 7.42508 13.275 7.57508 13.5 7.87508C14.475 9.45008 15 11.6251 15 14.1751C15 14.7001 14.7 15.0001 14.25 15.0001Z" fill="#BCBCBC"/>
<path d="M9 15H3.75C3.3 15 3 14.7 3 14.25C3 11.7 3.525 9.52495 4.5 7.94995C4.725 7.57495 5.175 7.49995 5.55 7.72495C5.925 7.94995 6 8.39995 5.775 8.77495C5.025 9.97495 4.575 11.625 4.5 13.575H9C9.45 13.575 9.75 13.875 9.75 14.325C9.75 14.775 9.45 15 9 15Z" fill="#BCBCBC"/>
<path d="M16.5 15C16.05 15 15.75 14.7 15.75 14.25V6.75C15.75 6.3 16.05 6 16.5 6C16.95 6 17.25 6.3 17.25 6.75V14.25C17.25 14.7 16.95 15 16.5 15Z" fill="#BCBCBC"/>
</svg>
