<svg width="250" height="256" viewBox="0 0 250 256" fill="none" xmlns="http://www.w3.org/2000/svg">
<path d="M9.456 23.788C4.68 23.788 1.848 21.052 1.848 16.108V6.7H5.736V15.964C5.736 19.156 7.128 20.476 9.48 20.476C11.856 20.476 13.224 19.156 13.224 15.964V6.7H17.064V16.108C17.064 21.052 14.232 23.788 9.456 23.788ZM27.0981 9.124C24.6021 9.124 22.7781 7.732 22.6821 5.476H25.0341C25.0821 6.508 25.9701 7.18 27.0981 7.18C28.2261 7.18 29.1141 6.508 29.1621 5.476H31.5141C31.4181 7.732 29.5941 9.124 27.0981 9.124ZM30.4101 10.588H33.9621V21.34C33.9621 26.14 31.3701 28.348 26.7141 28.348C24.2661 28.348 21.8901 27.748 20.3781 26.572L21.8661 23.884C22.9701 24.772 24.7701 25.348 26.4261 25.348C29.0661 25.348 30.2181 24.148 30.2181 21.82V21.268C29.2341 22.348 27.8181 22.876 26.1381 22.876C22.5621 22.876 19.6821 20.404 19.6821 16.636C19.6821 12.868 22.5621 10.396 26.1381 10.396C27.9381 10.396 29.4261 10.996 30.4101 12.244V10.588ZM26.8821 19.804C28.8501 19.804 30.2661 18.532 30.2661 16.636C30.2661 14.74 28.8501 13.468 26.8821 13.468C24.9141 13.468 23.4741 14.74 23.4741 16.636C23.4741 18.532 24.9141 19.804 26.8821 19.804ZM46.7108 10.588H50.4548V23.5H46.9028V21.964C45.9188 23.092 44.4788 23.692 42.8948 23.692C39.6548 23.692 37.3748 21.868 37.3748 17.884V10.588H41.1188V17.332C41.1188 19.492 42.0788 20.452 43.7348 20.452C45.4628 20.452 46.7108 19.348 46.7108 16.972V10.588ZM57.4993 12.292C58.4113 11.044 59.9473 10.396 61.9393 10.396V13.852C61.6273 13.828 61.3873 13.804 61.0993 13.804C59.0353 13.804 57.6673 14.932 57.6673 17.404V23.5H53.9233V10.588H57.4993V12.292ZM64.1655 23.5V5.692H67.9095V23.5H64.1655ZM76.5923 10.396C80.5283 10.396 82.8083 12.22 82.8083 16.132V23.5H79.3043V21.892C78.6083 23.068 77.2643 23.692 75.3683 23.692C72.3443 23.692 70.5443 22.012 70.5443 19.78C70.5443 17.5 72.1523 15.916 76.0883 15.916H79.0643C79.0643 14.308 78.1043 13.372 76.0883 13.372C74.7203 13.372 73.3043 13.828 72.3683 14.572L71.0243 11.956C72.4403 10.948 74.5283 10.396 76.5923 10.396ZM76.3043 21.172C77.5523 21.172 78.6323 20.596 79.0643 19.42V18.1H76.4963C74.7443 18.1 74.1923 18.748 74.1923 19.612C74.1923 20.548 74.9843 21.172 76.3043 21.172ZM98.2736 10.396C102.738 10.396 105.642 13.204 105.642 17.044C105.642 20.908 102.69 23.692 98.7536 23.692C94.9616 23.692 92.0336 21.148 92.0336 16.996C92.0336 16.708 92.0816 16.3 92.1056 15.988H101.874C101.514 14.38 100.146 13.396 98.1776 13.396C96.8096 13.396 95.8256 13.804 94.9376 14.644L92.9456 12.484C94.1456 11.116 95.9456 10.396 98.2736 10.396ZM98.7296 20.86C100.434 20.86 101.658 19.828 101.922 18.172H95.5616C95.8256 19.804 97.0496 20.86 98.7296 20.86ZM108.134 23.5V5.692H111.878V23.5H108.134ZM120.561 10.396C124.497 10.396 126.777 12.22 126.777 16.132V23.5H123.273V21.892C122.577 23.068 121.233 23.692 119.337 23.692C116.313 23.692 114.513 22.012 114.513 19.78C114.513 17.5 116.121 15.916 120.057 15.916H123.033C123.033 14.308 122.073 13.372 120.057 13.372C118.689 13.372 117.273 13.828 116.337 14.572L114.993 11.956C116.409 10.948 118.497 10.396 120.561 10.396ZM120.273 21.172C121.521 21.172 122.601 20.596 123.033 19.42V18.1H120.465C118.713 18.1 118.161 18.748 118.161 19.612C118.161 20.548 118.953 21.172 120.273 21.172ZM139.147 10.588H142.747L137.299 23.5H133.435L128.011 10.588H131.875L135.451 19.372L139.147 10.588ZM149.203 10.396C153.667 10.396 156.571 13.204 156.571 17.044C156.571 20.908 153.619 23.692 149.683 23.692C145.891 23.692 142.963 21.148 142.963 16.996C142.963 16.708 143.011 16.3 143.035 15.988H152.803C152.443 14.38 151.075 13.396 149.107 13.396C147.739 13.396 146.755 13.804 145.867 14.644L143.875 12.484C145.075 11.116 146.875 10.396 149.203 10.396ZM149.659 20.86C151.363 20.86 152.587 19.828 152.851 18.172H146.491C146.755 19.804 147.979 20.86 149.659 20.86ZM178.509 17.092C178.509 17.38 178.461 17.788 178.437 18.1H168.669C169.029 19.708 170.397 20.692 172.365 20.692C173.733 20.692 174.717 20.284 175.605 19.444L177.597 21.604C176.397 22.972 174.597 23.692 172.269 23.692C167.805 23.692 164.901 20.884 164.901 17.044C164.901 13.18 167.853 10.396 171.789 10.396C175.581 10.396 178.509 12.94 178.509 17.092ZM171.813 13.228C170.109 13.228 168.885 14.26 168.621 15.916H174.981C174.717 14.284 173.493 13.228 171.813 13.228ZM190.409 5.692H194.153V23.5H190.577V22.012C189.641 23.14 188.273 23.692 186.545 23.692C182.897 23.692 180.089 21.1 180.089 17.044C180.089 12.988 182.897 10.396 186.545 10.396C188.129 10.396 189.473 10.9 190.409 11.956V5.692ZM187.193 20.62C189.041 20.62 190.481 19.276 190.481 17.044C190.481 14.812 189.041 13.468 187.193 13.468C185.321 13.468 183.881 14.812 183.881 17.044C183.881 19.276 185.321 20.62 187.193 20.62ZM199.491 8.788C198.099 8.788 197.163 7.876 197.163 6.7C197.163 5.524 198.099 4.612 199.491 4.612C200.883 4.612 201.819 5.476 201.819 6.628C201.819 7.876 200.883 8.788 199.491 8.788ZM197.619 23.5V10.588H201.363V23.5H197.619ZM204.837 23.5V5.692H208.581V23.5H204.837ZM221.464 5.692H225.208V23.5H221.632V22.012C220.696 23.14 219.328 23.692 217.6 23.692C213.952 23.692 211.144 21.1 211.144 17.044C211.144 12.988 213.952 10.396 217.6 10.396C219.184 10.396 220.528 10.9 221.464 11.956V5.692ZM218.248 20.62C220.096 20.62 221.536 19.276 221.536 17.044C221.536 14.812 220.096 13.468 218.248 13.468C216.376 13.468 214.936 14.812 214.936 17.044C214.936 19.276 216.376 20.62 218.248 20.62ZM230.545 8.788C229.153 8.788 228.217 7.876 228.217 6.7C228.217 5.524 229.153 4.612 230.545 4.612C231.937 4.612 232.873 5.476 232.873 6.628C232.873 7.876 231.937 8.788 230.545 8.788ZM228.673 23.5V10.588H232.417V23.5H228.673ZM236.156 17.668L235.412 6.7H239.876L239.132 17.668H236.156ZM237.644 23.692C236.3 23.692 235.34 22.708 235.34 21.508C235.34 20.284 236.3 19.372 237.644 19.372C238.988 19.372 239.948 20.284 239.948 21.508C239.948 22.708 238.988 23.692 237.644 23.692Z" fill="black"/>
<path d="M182.911 102.589C150.926 70.6037 99.0752 70.6037 67.0897 102.589C35.1042 134.575 35.1042 186.425 67.0897 218.411C99.0752 250.396 150.926 250.396 182.911 218.411C214.897 186.425 214.89 134.575 182.911 102.589ZM169.572 140.249L119.805 190.022C118.576 191.25 116.91 191.94 115.173 191.94C113.436 191.94 111.769 191.25 110.541 190.022L80.429 159.904C79.8207 159.295 79.3382 158.573 79.009 157.779C78.6798 156.984 78.5104 156.132 78.5104 155.272C78.5104 153.534 79.2005 151.868 80.429 150.64C81.6575 149.411 83.3237 148.721 85.0611 148.721C86.7985 148.721 88.4647 149.411 89.6932 150.64L115.173 176.119L160.308 130.978C160.916 130.37 161.639 129.887 162.434 129.558C163.229 129.229 164.081 129.06 164.942 129.06C165.803 129.06 166.655 129.23 167.45 129.56C168.245 129.889 168.967 130.372 169.575 130.981C170.183 131.59 170.666 132.312 170.995 133.108C171.324 133.903 171.493 134.755 171.493 135.616C171.492 136.476 171.323 137.328 170.993 138.123C170.663 138.918 170.181 139.64 169.572 140.249Z" fill="#30AC04"/>
</svg>
